<svg width="24" height="24" viewBox="0 0 24 24" currentColor="none" xmlns="http://www.w3.org/2000/svg"><path currentColor-rule="evenodd" clip-rule="evenodd" d="M3 14.8983L5.19512 9L7 12.4373L8.78049 9L11 14.8983H9.5122L8.5122 12.1932L7 15L5.53659 12.1932L4.46341 14.8983H3ZM16 9H10V10.0909H12.3077V15H13.7195V10.0909H16V9ZM12.0001 2.99981C9.12606 2.99981 6.56669 4.34695 4.91895 6.44422L4.42725 5.46882C6.26101 3.34451 8.97351 2 12 2C17.5229 2 22 6.47715 22 12C22 17.5228 17.5229 22 12 22C9.49425 22 7.20373 21.0784 5.44897 19.5556L5.93984 18.6537C7.53913 20.1112 9.66582 20.9998 12.0001 20.9998C16.9706 20.9998 21.0001 16.9704 21.0001 11.9998C21.0001 7.02925 16.9706 2.99981 12.0001 2.99981Z" currentColor="black"/></svg>